<svg width="31" height="32" viewBox="0 0 31 32" fill="none" xmlns="http://www.w3.org/2000/svg">
<path d="M15.5 0.415833C6.93625 0.415833 2.26229e-06 7.45729 2.26229e-06 16.1509C-0.00175578 19.4542 1.02116 22.6741 2.92364 25.3539C4.82611 28.0337 7.51153 30.0373 10.5989 31.0804C11.3739 31.2173 11.6638 30.7452 11.6638 30.3314C11.6638 29.9585 11.6436 28.7201 11.6436 27.4015C7.75 28.1301 6.7425 26.4385 6.4325 25.5526C6.25735 25.0995 5.5025 23.7038 4.84375 23.3293C4.30125 23.035 3.52625 22.3065 4.8236 22.2876C6.045 22.2672 6.9161 23.4284 7.2075 23.9005C8.6025 26.2796 10.8314 25.6109 11.7211 25.1986C11.8575 24.1758 12.2636 23.4882 12.71 23.0948C9.26125 22.7014 5.6575 21.3435 5.6575 15.3248C5.6575 13.6129 6.25735 12.1983 7.24625 11.0952C7.09125 10.7019 6.54875 9.08902 7.40125 6.92544C7.40125 6.92544 8.6986 6.51318 11.6638 8.53986C12.9255 8.18434 14.2293 8.00541 15.5388 8.00801C16.8563 8.00801 18.1737 8.18425 19.4137 8.53829C22.3773 6.49273 23.6763 6.92701 23.6763 6.92701C24.5287 9.09059 23.9862 10.7034 23.8313 11.0968C24.8186 12.1983 25.42 13.594 25.42 15.3248C25.42 21.364 21.7977 22.7014 18.3489 23.0948C18.91 23.5858 19.3951 24.5299 19.3951 26.0058C19.3951 28.1096 19.375 29.8011 19.375 30.333C19.375 30.7452 19.6664 31.2362 20.4414 31.0788C23.5182 30.0242 26.1918 28.0167 28.0858 25.3389C29.9799 22.661 30.9991 19.4476 31 16.1509C31 7.45729 24.0638 0.415833 15.5 0.415833Z" fill="#FAFAFA"/>
</svg>
