<svg width="31" height="32" viewBox="0 0 31 32" fill="none" xmlns="http://www.w3.org/2000/svg">
<path d="M15.5 0.415833C19.7113 0.415833 20.2368 0.431179 21.8891 0.507912C23.5398 0.584644 24.6636 0.840932 25.6525 1.22153C26.6755 1.61133 27.5373 2.13925 28.3991 2.99098C29.1873 3.75815 29.7971 4.68614 30.1862 5.71039C30.5691 6.68796 30.8295 7.80212 30.907 9.43653C30.9799 11.0725 31 11.5927 31 15.7624C31 19.932 30.9845 20.4523 30.907 22.0882C30.8295 23.7226 30.5691 24.8352 30.1862 25.8143C29.7982 26.8392 29.1882 27.7674 28.3991 28.5338C27.624 29.3138 26.6868 29.9176 25.6525 30.3032C24.6651 30.6823 23.5398 30.9401 21.8891 31.0168C20.2368 31.089 19.7113 31.1089 15.5 31.1089C11.2886 31.1089 10.7632 31.0936 9.1109 31.0168C7.46015 30.9401 6.3364 30.6823 5.3475 30.3032C4.3126 29.9187 3.37517 29.3148 2.6009 28.5338C1.81258 27.7667 1.20269 26.8387 0.81375 25.8143C0.42935 24.8368 0.1705 23.7226 0.0929999 22.0882C0.0201499 20.4523 0 19.932 0 15.7624C0 11.5927 0.0154999 11.0725 0.0929999 9.43653C0.1705 7.80058 0.42935 6.6895 0.81375 5.71039C1.20162 4.68551 1.81165 3.75727 2.6009 2.99098C3.37539 2.2102 4.31276 1.60631 5.3475 1.22153C6.3364 0.840932 7.4586 0.584644 9.1109 0.507912C10.7632 0.435783 11.2886 0.415833 15.5 0.415833ZM15.5 8.0891C13.4446 8.0891 11.4733 8.89753 10.0199 10.3365C8.56651 11.7756 7.75 13.7273 7.75 15.7624C7.75 17.7974 8.56651 19.7492 10.0199 21.1882C11.4733 22.6272 13.4446 23.4356 15.5 23.4356C17.5554 23.4356 19.5267 22.6272 20.9801 21.1882C22.4335 19.7492 23.25 17.7974 23.25 15.7624C23.25 13.7273 22.4335 11.7756 20.9801 10.3365C19.5267 8.89753 17.5554 8.0891 15.5 8.0891ZM25.575 7.70544C25.575 7.19667 25.3709 6.70874 25.0075 6.34898C24.6442 5.98923 24.1514 5.78712 23.6375 5.78712C23.1236 5.78712 22.6308 5.98923 22.2675 6.34898C21.9041 6.70874 21.7 7.19667 21.7 7.70544C21.7 8.21421 21.9041 8.70214 22.2675 9.06189C22.6308 9.42165 23.1236 9.62375 23.6375 9.62375C24.1514 9.62375 24.6442 9.42165 25.0075 9.06189C25.3709 8.70214 25.575 8.21421 25.575 7.70544ZM15.5 11.1584C16.7333 11.1584 17.916 11.6435 18.788 12.5069C19.6601 13.3703 20.15 14.5413 20.15 15.7624C20.15 16.9834 19.6601 18.1544 18.788 19.0179C17.916 19.8813 16.7333 20.3663 15.5 20.3663C14.2667 20.3663 13.084 19.8813 12.212 19.0179C11.3399 18.1544 10.85 16.9834 10.85 15.7624C10.85 14.5413 11.3399 13.3703 12.212 12.5069C13.084 11.6435 14.2667 11.1584 15.5 11.1584Z" fill="#FAFAFA"/>
</svg>
