<svg width="31" height="32" viewBox="0 0 31 32" fill="none" xmlns="http://www.w3.org/2000/svg">
<path d="M26.4103 26.5714H21.8206V19.4489C21.8206 17.7506 21.7861 15.5646 19.4267 15.5646C17.0345 15.5646 16.6694 17.413 16.6694 19.3245V26.5714H12.0779V11.9257H16.4868V13.9208H16.5471C17.1637 12.7715 18.662 11.5557 20.9009 11.5557C25.5509 11.5557 26.412 14.5875 26.412 18.5316V26.5714H26.4103ZM6.89405 9.92216C6.54368 9.92261 6.19666 9.85458 5.87289 9.72198C5.54912 9.58938 5.25496 9.39482 5.00729 9.14944C4.75961 8.90406 4.56329 8.61269 4.42957 8.29204C4.29586 7.97139 4.22738 7.62776 4.22806 7.28085C4.2284 6.75878 4.38509 6.24854 4.67831 5.81465C4.97154 5.38076 5.38813 5.0427 5.87541 4.84323C6.36269 4.64375 6.89877 4.59182 7.41585 4.694C7.93294 4.79618 8.40781 5.04789 8.78042 5.41728C9.15302 5.78667 9.40663 6.25717 9.50916 6.76927C9.6117 7.28136 9.55856 7.81207 9.35646 8.29426C9.15436 8.77646 8.81238 9.18849 8.37377 9.47825C7.93516 9.76801 7.41962 9.92249 6.89233 9.92216H6.89405ZM9.19494 26.5714H4.59144V11.9257H9.19667V26.5714H9.19494ZM28.7094 0.415833H2.28883C1.02128 0.415833 0 1.40483 0 2.62744V28.8973C0 30.1199 1.023 31.1089 2.28711 31.1089H28.7026C29.9667 31.1089 31 30.1199 31 28.8973V2.62744C31 1.40483 29.9667 0.415833 28.7026 0.415833H28.7077H28.7094Z" fill="#FAFAFA"/>
</svg>
